<svg width="22" height="22" viewBox="0 0 22 22" fill="none" xmlns="http://www.w3.org/2000/svg">
  <path d="M6.25 4.5C6.25 3.94772 6.69772 3.5 7.25 3.5H8.75C9.30228 3.5 9.75 3.94772 9.75 4.5V11.25C9.75 11.8023 10.1977 12.25 10.75 12.25H13.5C14.0523 12.25 14.5 12.6977 14.5 13.25V14C14.5 14.5523 14.0523 15 13.5 15H10.5C8.15279 15 6.25 13.0972 6.25 10.75V4.5Z" fill="black"/>
  <path d="M15.25 4.25L15.9558 5.94417L17.65 6.65L15.9558 7.35583L15.25 9.05L14.5442 7.35583L12.85 6.65L14.5442 5.94417L15.25 4.25Z" fill="black"/>
</svg>
